<svg width="16" height="13" viewBox="0 0 16 13" fill="none" xmlns="http://www.w3.org/2000/svg">
<path d="M12.828 0H0V4.7504H1.236L2.8936 2.2304L4.3752 5.0304L5.0208 4.0496H8.4056C8.70349 3.16926 9.32961 2.43782 10.1535 2.00771C10.9773 1.57759 11.9354 1.48198 12.828 1.7408V0ZM8.2456 5.6504H5.8832L4.2248 8.168L2.744 5.368L2.0984 6.3488H0V10.4H5.6136V11.2H4.0088C3.79663 11.2 3.59314 11.2843 3.44311 11.4343C3.29309 11.5843 3.2088 11.7878 3.2088 12C3.2088 12.2122 3.29309 12.4157 3.44311 12.5657C3.59314 12.7157 3.79663 12.8 4.0088 12.8H8.8192C9.03137 12.8 9.23486 12.7157 9.38489 12.5657C9.53491 12.4157 9.6192 12.2122 9.6192 12C9.6192 11.7878 9.53491 11.5843 9.38489 11.4343C9.23486 11.2843 9.03137 11.2 8.8192 11.2H7.2136V10.4H12.828V8.6592C12.5022 8.75311 12.1647 8.80051 11.8256 8.8C10.9479 8.8003 10.1001 8.48064 9.44116 7.90088C8.78217 7.32111 8.35712 6.52101 8.2456 5.6504Z" fill="black"/>
<path fill-rule="evenodd" clip-rule="evenodd" d="M14.2937 6.5327C14.5238 6.10565 14.6391 5.6262 14.6284 5.14122C14.6177 4.65625 14.4813 4.18236 14.2326 3.76587C13.9839 3.34939 13.6313 3.00458 13.2095 2.76515C12.7876 2.52572 12.3108 2.39987 11.8257 2.3999C11.4576 2.39948 11.093 2.47157 10.7527 2.61206C10.4124 2.75255 10.1032 2.95868 9.84259 3.21868C9.58199 3.47868 9.37515 3.78747 9.23389 4.12741C9.09263 4.46735 9.01971 4.83178 9.01929 5.1999C9.01929 6.7463 10.2753 7.9999 11.8257 7.9999C12.2921 8.00067 12.7514 7.8849 13.1617 7.6631L14.8665 9.3647L16.0001 8.2351L14.2937 6.5327ZM11.8257 6.3999C12.4945 6.3999 13.0313 5.8591 13.0313 5.1999C13.0313 4.5407 12.4961 3.9999 11.8257 3.9999C11.1553 3.9999 10.6193 4.5407 10.6193 5.1999C10.6193 5.8591 11.1561 6.3999 11.8257 6.3999Z" fill="black"/>
</svg>
