<svg width="16" height="12" viewBox="0 0 16 12" fill="none" xmlns="http://www.w3.org/2000/svg">
<path d="M9.6 2.69448e-10C9.80708 -5.37092e-06 10.0061 0.0802919 10.1552 0.224006L10.2248 0.300008L13.184 4.0001H13.6C14.2122 4.00007 14.8012 4.23397 15.2466 4.65394C15.692 5.07392 15.9601 5.64823 15.996 6.25936L16 6.40016V9.60024C16 9.81242 15.9157 10.0159 15.7657 10.1659C15.6157 10.316 15.4122 10.4003 15.2 10.4003H14.2632C14.0976 10.8681 13.791 11.2732 13.3857 11.5597C12.9804 11.8462 12.4963 12 12 12C11.5037 12 11.0196 11.8462 10.6143 11.5597C10.209 11.2732 9.90241 10.8681 9.7368 10.4003H6.2632C6.09759 10.8681 5.79104 11.2732 5.38574 11.5597C4.98044 11.8462 4.49632 12 4 12C3.50368 12 3.01956 11.8462 2.61426 11.5597C2.20896 11.2732 1.90241 10.8681 1.7368 10.4003H0.8C0.587827 10.4003 0.384344 10.316 0.234315 10.1659C0.0842854 10.0159 0 9.81242 0 9.60024V4.80012L0.00559998 4.70652L0.0120001 4.66172L0.0256001 4.59932L0.0351999 4.57052L0.0464001 4.53051L1.6576 0.503213C1.71691 0.35476 1.81933 0.227479 1.95165 0.137786C2.08398 0.0480931 2.24014 0.000101184 2.4 2.69448e-10H9.6ZM4 8.80022C3.78783 8.80022 3.58434 8.88451 3.43431 9.03454C3.28429 9.18458 3.2 9.38806 3.2 9.60024C3.2 9.81242 3.28429 10.0159 3.43431 10.1659C3.58434 10.316 3.78783 10.4003 4 10.4003C4.21217 10.4003 4.41566 10.316 4.56569 10.1659C4.71571 10.0159 4.8 9.81242 4.8 9.60024C4.8 9.38806 4.71571 9.18458 4.56569 9.03454C4.41566 8.88451 4.21217 8.80022 4 8.80022ZM12 8.80022C11.7878 8.80022 11.5843 8.88451 11.4343 9.03454C11.2843 9.18458 11.2 9.38806 11.2 9.60024C11.2 9.81242 11.2843 10.0159 11.4343 10.1659C11.5843 10.316 11.7878 10.4003 12 10.4003C12.2122 10.4003 12.4157 10.316 12.5657 10.1659C12.7157 10.0159 12.8 9.81242 12.8 9.60024C12.8 9.38806 12.7157 9.18458 12.5657 9.03454C12.4157 8.88451 12.2122 8.80022 12 8.80022ZM7.2 1.60004H2.9408L1.9808 4.0001H7.2V1.60004ZM9.216 1.60004H8.8V4.0001H11.136L9.216 1.60004Z" fill="black"/>
</svg>
