<svg width="16" height="16" viewBox="0 0 16 16" fill="none" xmlns="http://www.w3.org/2000/svg">
<path fill-rule="evenodd" clip-rule="evenodd" d="M8 16C12.4184 16 16 12.4184 16 8C16 3.5816 12.4184 0 8 0C3.5816 0 0 3.5816 0 8C0 12.4184 3.5816 16 8 16ZM12.7632 8.6H10.324C10.2149 9.02214 9.99277 9.40657 9.6816 9.712L10.9008 11.824C11.4103 11.4377 11.8375 10.9536 12.1573 10.3999C12.4772 9.8463 12.6831 9.23434 12.7632 8.6ZM9.8624 12.4256L8.6424 10.3136C8.22209 10.4304 7.77791 10.4304 7.3576 10.3136L6.1376 12.4256C6.72726 12.6732 7.36046 12.8005 8 12.8C8.66 12.8 9.2896 12.6664 9.8624 12.4256ZM5.0992 11.8248L6.3184 9.7128C6.00681 9.40724 5.78444 9.02251 5.6752 8.6H3.2368C3.31686 9.23434 3.52285 9.8463 3.84267 10.3999C4.16249 10.9536 4.58969 11.4385 5.0992 11.8248ZM12.7632 7.3992H10.324C10.2149 6.97706 9.99277 6.59263 9.6816 6.2872L10.9008 4.1752C11.4103 4.56146 11.8375 5.04563 12.1573 5.59927C12.4772 6.1529 12.6831 6.76486 12.7632 7.3992ZM9.8624 3.5736C9.27269 3.32625 8.63949 3.19923 8 3.2C7.34 3.2 6.7104 3.3336 6.1376 3.5744L7.3576 5.6864C7.77791 5.56964 8.22209 5.56964 8.6424 5.6864L9.8624 3.5736ZM6.3184 6.288L5.0992 4.176C4.58969 4.56226 4.16249 5.04643 3.84267 5.60007C3.52285 6.1537 3.31686 6.76566 3.2368 7.4H5.676C5.7864 6.972 6.012 6.5896 6.3184 6.288Z" fill="black"/>
</svg>
