<svg width="16" height="13" viewBox="0 0 16 13" fill="none" xmlns="http://www.w3.org/2000/svg">
<path d="M5.6 3.25H10.4V1.625H5.6V3.25ZM0 13V8.9375H3.2V9.75H4.8V8.9375H11.2V9.75H12.8V8.9375H16V13H0ZM0 8.125V4.875C0 4.42812 0.1568 4.04571 0.4704 3.72775C0.784 3.40979 1.16053 3.25054 1.6 3.25H4V1.625C4 1.17812 4.1568 0.795708 4.4704 0.47775C4.784 0.159792 5.16053 0.000541667 5.6 0H10.4C10.84 0 11.2168 0.15925 11.5304 0.47775C11.844 0.79625 12.0005 1.17867 12 1.625V3.25H14.4C14.84 3.25 15.2168 3.40925 15.5304 3.72775C15.844 4.04625 16.0005 4.42867 16 4.875V8.125H12.8V6.5H11.2V8.125H4.8V6.5H3.2V8.125H0Z" fill="black"/>
</svg>
